<svg xmlns="http://www.w3.org/2000/svg" viewBox="0 0 160 160"><defs><style>.cls-1{fill:#f3a611;}.cls-2{fill:#e67f14;}.cls-3{fill:#0d1f23;}.cls-4{fill:#fff;}</style></defs><g id="레이어_1" data-name="레이어 1"><path class="cls-1" d="M80,48.3a31.69,31.69,0,0,0-19.82,56.43l44.55-44.55A31.64,31.64,0,0,0,80,48.3Z"/><path class="cls-2" d="M111.7,80a31.55,31.55,0,0,0-7-19.82L60.18,104.73A31.69,31.69,0,0,0,111.7,80Z"/><path class="cls-3" d="M80,116.3A36.3,36.3,0,1,1,116.3,80,36.35,36.35,0,0,1,80,116.3Zm0-63.41A27.11,27.11,0,1,0,107.11,80,27.14,27.14,0,0,0,80,52.89Z"/><path class="cls-3" d="M80,147.69a4.6,4.6,0,0,1-4.6-4.59V125a4.6,4.6,0,0,1,9.2,0v18.1A4.6,4.6,0,0,1,80,147.69Z"/><path class="cls-3" d="M109.53,135.74a4.57,4.57,0,0,1-4-2.3l-5-8.67a4.6,4.6,0,1,1,8-4.6l5,8.68a4.6,4.6,0,0,1-4,6.89Z"/><path class="cls-3" d="M130,113.44a4.53,4.53,0,0,1-2.29-.62l-6.3-3.63a4.6,4.6,0,1,1,4.6-8l6.29,3.63a4.6,4.6,0,0,1-2.3,8.58Z"/><path class="cls-3" d="M143.1,84.6H125a4.6,4.6,0,0,1,0-9.2h18.1a4.6,4.6,0,0,1,0,9.2Z"/><path class="cls-3" d="M122.48,60.08a4.6,4.6,0,0,1-2.31-8.58l8.68-5a4.59,4.59,0,0,1,4.59,8l-8.67,5A4.56,4.56,0,0,1,122.48,60.08Z"/><path class="cls-3" d="M105.2,40.93a4.59,4.59,0,0,1-4-6.89l3.63-6.29a4.59,4.59,0,0,1,8,4.59l-3.63,6.3A4.6,4.6,0,0,1,105.2,40.93Z"/><path class="cls-3" d="M80,39.59A4.59,4.59,0,0,1,75.4,35V16.9a4.6,4.6,0,0,1,9.2,0V35A4.59,4.59,0,0,1,80,39.59Z"/><path class="cls-3" d="M55.48,42.12a4.6,4.6,0,0,1-4-2.29l-5-8.68a4.59,4.59,0,0,1,8-4.59l5,8.67a4.59,4.59,0,0,1-4,6.89Z"/><path class="cls-3" d="M36.33,59.39A4.53,4.53,0,0,1,34,58.77l-6.29-3.63a4.59,4.59,0,0,1,4.59-8l6.3,3.63a4.6,4.6,0,0,1-2.31,8.58Z"/><path class="cls-3" d="M35,84.6H16.9a4.6,4.6,0,0,1,0-9.2H35a4.6,4.6,0,0,1,0,9.2Z"/><path class="cls-3" d="M28.86,114.12a4.59,4.59,0,0,1-2.3-8.57l8.67-5a4.6,4.6,0,0,1,4.6,8l-8.68,5A4.52,4.52,0,0,1,28.86,114.12Z"/><path class="cls-3" d="M51.16,134.55a4.6,4.6,0,0,1-4-6.89l3.63-6.3a4.6,4.6,0,1,1,8,4.6l-3.63,6.29A4.58,4.58,0,0,1,51.16,134.55Z"/><path class="cls-4" d="M65.76,78.05a4.59,4.59,0,0,1-4-6.89l3.63-6.29a4.59,4.59,0,1,1,8,4.59l-3.63,6.29A4.6,4.6,0,0,1,65.76,78.05Z"/></g></svg>