<svg xmlns="http://www.w3.org/2000/svg" viewBox="0 0 160 160"><defs><style>.cls-1{fill:#f3a611;}.cls-2{fill:#e67f14;}.cls-3{fill:#0d1f23;}.cls-4{fill:#fff;}.cls-5{fill:#cadada;}</style></defs><g id="레이어_1" data-name="레이어 1"><path class="cls-1" d="M59.56,48.18a23.75,23.75,0,0,0-17,41.48L77.62,58A23.74,23.74,0,0,0,59.56,48.18Z"/><path class="cls-2" d="M82.08,73.12A23.72,23.72,0,0,0,77.62,58L42.57,89.66A23.75,23.75,0,0,0,82.08,73.12Z"/><path class="cls-3" d="M58.36,99.11l-1.4,0a27.32,27.32,0,1,1,1.4,0Zm0-47.51a20,20,0,1,0,1,0C59,51.6,58.68,51.6,58.34,51.6Z"/><path class="cls-3" d="M55.94,122.58h-.18A3.44,3.44,0,0,1,52.5,119l.69-13.54a3.44,3.44,0,1,1,6.88.35l-.7,13.54A3.44,3.44,0,0,1,55.94,122.58Z"/><path class="cls-3" d="M78.5,114.77a3.44,3.44,0,0,1-3.07-1.88L72,106.21a3.44,3.44,0,1,1,6.13-3.14l3.42,6.68a3.44,3.44,0,0,1-1.5,4.64A3.52,3.52,0,0,1,78.5,114.77Z"/><path class="cls-3" d="M94.63,98.85a3.47,3.47,0,0,1-1.87-.55l-4.57-3a3.44,3.44,0,1,1,3.75-5.78l4.57,3a3.44,3.44,0,0,1-1.88,6.33Z"/><path class="cls-3" d="M105.58,77.77h-.18l-13.55-.69a3.44,3.44,0,0,1-3.26-3.61,3.48,3.48,0,0,1,3.62-3.27l13.54.69a3.45,3.45,0,0,1-.17,6.89Z"/><path class="cls-3" d="M91.08,58.63a3.44,3.44,0,0,1-1.57-6.51l6.68-3.42a3.44,3.44,0,1,1,3.14,6.13l-6.69,3.42A3.48,3.48,0,0,1,91.08,58.63Z"/><path class="cls-3" d="M78.88,43.64A3.4,3.4,0,0,1,77,43.08a3.44,3.44,0,0,1-1-4.76l3-4.57a3.44,3.44,0,1,1,5.78,3.75l-3,4.57A3.47,3.47,0,0,1,78.88,43.64Z"/><path class="cls-3" d="M60.07,41.67h-.18a3.44,3.44,0,0,1-3.26-3.62l.69-13.54a3.48,3.48,0,0,1,3.62-3.27,3.44,3.44,0,0,1,3.26,3.62L63.51,38.4A3.45,3.45,0,0,1,60.07,41.67Z"/><path class="cls-3" d="M41.62,42.63a3.45,3.45,0,0,1-3.07-1.88l-3.41-6.68a3.44,3.44,0,1,1,6.13-3.14l3.42,6.69a3.45,3.45,0,0,1-1.5,4.63A3.4,3.4,0,0,1,41.62,42.63Z"/><path class="cls-3" d="M26.63,54.82a3.4,3.4,0,0,1-1.87-.56l-4.57-3a3.44,3.44,0,1,1,3.74-5.78l4.57,3a3.45,3.45,0,0,1-1.87,6.34Z"/><path class="cls-3" d="M24.67,73.63h-.18l-13.55-.69a3.44,3.44,0,1,1,.36-6.88l13.54.69a3.44,3.44,0,0,1-.17,6.88Z"/><path class="cls-3" d="M18.94,95.5A3.44,3.44,0,0,1,17.37,89l6.68-3.42a3.45,3.45,0,0,1,3.14,6.14l-6.68,3.41A3.43,3.43,0,0,1,18.94,95.5Z"/><path class="cls-3" d="M34.85,111.64A3.44,3.44,0,0,1,32,106.32l3-4.56a3.44,3.44,0,0,1,5.78,3.74l-3,4.57A3.43,3.43,0,0,1,34.85,111.64Z"/><path class="cls-4" d="M47.94,69.91a3.44,3.44,0,0,1-2.89-5.31L48,60a3.44,3.44,0,1,1,5.78,3.74l-2.95,4.57A3.44,3.44,0,0,1,47.94,69.91Z"/><path class="cls-4" d="M53.46,135.32H104A44.94,44.94,0,1,0,59.07,88.21a24.39,24.39,0,1,0-8.84,47.11Z"/><path class="cls-5" d="M148.88,90.38a44.92,44.92,0,0,0-26.53-41c.11,14.09-2.12,85.92-58.35,85.92h40A44.94,44.94,0,0,0,148.88,90.38Z"/><path class="cls-3" d="M104,138.76H50.22a27.84,27.84,0,1,1,5.81-55A48.38,48.38,0,1,1,104,138.76ZM50.22,90a20.95,20.95,0,0,0,0,41.89H104A41.49,41.49,0,1,0,62.51,88.38a3.44,3.44,0,0,1-1.57,2.72,3.39,3.39,0,0,1-3.12.32A21,21,0,0,0,50.22,90Z"/></g></svg>