<svg xmlns="http://www.w3.org/2000/svg" viewBox="0 0 160 160"><defs><style>.cls-1{fill:#fff;}.cls-2{fill:#cadada;}.cls-3{fill:#0d1f23;}</style></defs><g id="레이어_5" data-name="레이어 5"><path class="cls-1" d="M128,88.82a20.3,20.3,0,0,0-7,1.27c0-.42,0-.84,0-1.27a41,41,0,0,0-82,0c0,.43,0,.85,0,1.27a20.48,20.48,0,1,0-7,39.71h96a20.49,20.49,0,0,0,0-41Z"/><path class="cls-2" d="M144.06,96.61s-17.29,26.63-39.51,22L120.1,94.85l2.42-4.76h9.84s8,2.85,8.51,3.29,3.19,3.23,3.19,3.23"/><path class="cls-2" d="M70.66,48.91S44,128.25,134.3,129.8H29.38l-15.67-9.05v-8.56s-1.8-7.31-1.36-8.66a61.63,61.63,0,0,1,4-7.41c.41-.47,8.57-6,8.57-6H35l4.38,1.44L39.59,82l7.46-17a27,27,0,0,1,2.79-3.94C51.1,59.77,70.66,48.91,70.66,48.91Z"/><path class="cls-3" d="M28.12,77.14a3.58,3.58,0,0,1-1-.14l-7.47-2.22a3.58,3.58,0,1,1,2-6.86l7.47,2.22a3.57,3.57,0,0,1-1,7Z"/><path class="cls-3" d="M43,53.34a3.55,3.55,0,0,1-2.59-1.12L30.31,41.55a3.58,3.58,0,0,1,5.19-4.92L45.62,47.29A3.59,3.59,0,0,1,43,53.34Z"/><path class="cls-3" d="M67.85,40.17a3.57,3.57,0,0,1-3.48-2.74l-1.82-7.58a3.58,3.58,0,0,1,7-1.67l1.82,7.58a3.58,3.58,0,0,1-3.48,4.41Z"/><path class="cls-3" d="M95.93,41.18a3.56,3.56,0,0,1-3.44-4.59l4-13.4a3.58,3.58,0,1,1,6.86,2l-4,13.4A3.56,3.56,0,0,1,95.93,41.18Z"/><path class="cls-3" d="M119.73,56.1a3.58,3.58,0,0,1-2.46-6.18l9.53-9.05a3.58,3.58,0,1,1,4.93,5.19l-9.54,9A3.54,3.54,0,0,1,119.73,56.1Z"/><path class="cls-3" d="M132.89,80.92a3.58,3.58,0,0,1-.83-7.06L139.64,72A3.57,3.57,0,1,1,141.31,79l-7.58,1.83A4,4,0,0,1,132.89,80.92Z"/><path class="cls-3" d="M128,133.38H32a24.07,24.07,0,0,1,0-48.14,23.61,23.61,0,0,1,3.56.27,44.55,44.55,0,0,1,88.86,0,23.61,23.61,0,0,1,3.56-.27,24.07,24.07,0,1,1,0,48.14Zm-96-41a16.91,16.91,0,1,0,0,33.82h96a16.91,16.91,0,1,0,0-33.82,16.74,16.74,0,0,0-5.81,1A3.58,3.58,0,0,1,117.37,90v-.32c0-.28,0-.56,0-.84a37.4,37.4,0,0,0-74.8,0c0,.28,0,.56,0,.84V90a3.58,3.58,0,0,1-4.81,3.47A16.74,16.74,0,0,0,32,92.4Z"/><path class="cls-3" d="M105.82,119.15a3.58,3.58,0,0,1-2.17-6.42c13.06-10,13.72-22.66,13.72-22.79a3.63,3.63,0,0,1,3.72-3.43,3.58,3.58,0,0,1,3.43,3.72c0,.66-.83,16.2-16.53,28.19A3.59,3.59,0,0,1,105.82,119.15Z"/><path class="cls-1" d="M28.12,113.86a3.51,3.51,0,0,1-1.79-.48A3.58,3.58,0,0,1,25,108.49l2.83-4.89A3.57,3.57,0,0,1,34,107.17l-2.82,4.9A3.59,3.59,0,0,1,28.12,113.86Z"/></g></svg>