<svg xmlns="http://www.w3.org/2000/svg" xmlns:xlink="http://www.w3.org/1999/xlink" viewBox="0 0 160 160"><defs><style>.cls-1{fill:none;}.cls-2{fill:#40a4c8;}.cls-3{fill:#0d1f23;}.cls-4{clip-path:url(#clip-path);}.cls-5{fill:#fff;}.cls-6{fill:#cadada;}</style><clipPath id="clip-path"><path id="SVGID" class="cls-1" d="M140.7,70.13a18.33,18.33,0,0,0-15.93-17.71,18,18,0,0,0-8.47,1c0-.37,0-.74,0-1.12a36.33,36.33,0,0,0-72.66,0c0,.38,0,.75,0,1.12a18,18,0,0,0-8.47-1,18.16,18.16,0,0,0,2.23,36.19h85.08A18.16,18.16,0,0,0,140.7,70.13Z"/></clipPath></defs><g id="레이어_1" data-name="레이어 1"><path class="cls-2" d="M49.8,134.62a10,10,0,0,1-20,0c0-5.52,10-21.53,10-21.53S49.8,129.1,49.8,134.62Z"/><path class="cls-3" d="M39.8,147.51a12.9,12.9,0,0,1-12.89-12.89c0-6,8.7-20.27,10.44-23.06l2.45-3.91,2.44,3.91c1.75,2.79,10.44,17,10.44,23.06A12.9,12.9,0,0,1,39.8,147.51Zm0-28.81c-3.49,6-7.12,13.31-7.12,15.92a7.12,7.12,0,0,0,14.24,0C46.92,132,43.29,124.75,39.8,118.7Z"/><path class="cls-2" d="M90.74,134.62a10,10,0,0,1-20,0c0-5.52,10-21.53,10-21.53S90.74,129.1,90.74,134.62Z"/><path class="cls-3" d="M80.74,147.51a12.9,12.9,0,0,1-12.88-12.89c0-6,8.69-20.27,10.44-23.06l2.44-3.91,2.45,3.91c1.74,2.79,10.43,17,10.43,23.06A12.89,12.89,0,0,1,80.74,147.51Zm0-28.81c-3.49,6-7.12,13.31-7.12,15.92a7.12,7.12,0,0,0,14.24,0C87.86,132,84.23,124.75,80.74,118.7Z"/><path class="cls-2" d="M130.2,134.62a10,10,0,0,1-20,0c0-5.52,10-21.53,10-21.53S130.2,129.1,130.2,134.62Z"/><path class="cls-3" d="M120.2,147.51a12.9,12.9,0,0,1-12.88-12.89c0-6,8.69-20.27,10.44-23.06l2.44-3.91,2.45,3.91c1.74,2.79,10.44,17,10.44,23.06A12.9,12.9,0,0,1,120.2,147.51Zm0-28.81c-3.49,6-7.12,13.31-7.12,15.92a7.12,7.12,0,0,0,14.24,0C127.32,132,123.69,124.75,120.2,118.7Z"/><g class="cls-4"><path class="cls-5" d="M140.7,70.13a18.33,18.33,0,0,0-15.93-17.71,18,18,0,0,0-8.47,1c0-.37,0-.74,0-1.12a36.33,36.33,0,0,0-72.66,0c0,.38,0,.75,0,1.12a18,18,0,0,0-8.47-1,18.16,18.16,0,0,0,2.23,36.19h85.08A18.16,18.16,0,0,0,140.7,70.13Z"/><path class="cls-6" d="M51.66,16S118.88,58,76.82,118.6,192,74.88,192,74.88l-27.79-77L92.91-17.24,59.24,16Z"/></g><path class="cls-3" d="M122.54,93.22H37.46a22.2,22.2,0,0,1-22.2-22.57A22.34,22.34,0,0,1,34.72,49a21.85,21.85,0,0,1,5.11,0,40.36,40.36,0,0,1,80.35,0,21.68,21.68,0,0,1,5.09,0,22.34,22.34,0,0,1,19.47,21.65h0a22.21,22.21,0,0,1-22.2,22.58ZM37.46,56.89A14.16,14.16,0,0,0,23.33,70.78,14.14,14.14,0,0,0,37.46,85.15h85.08a14.14,14.14,0,0,0,14.13-14.38h0A14.22,14.22,0,0,0,124.26,57a13.84,13.84,0,0,0-6.57.77,4,4,0,0,1-5.42-3.91v-.3c0-.23,0-.47,0-.7a32.29,32.29,0,0,0-64.58,0c0,.22,0,.45,0,.67v.33a4,4,0,0,1-5.43,3.91A14.12,14.12,0,0,0,37.46,56.89Z"/></g></svg>