<svg xmlns="http://www.w3.org/2000/svg" xmlns:xlink="http://www.w3.org/1999/xlink" viewBox="0 0 160 160"><defs><style>.cls-1{fill:none;}.cls-2{clip-path:url(#clip-path);}.cls-3{fill:#cadada;}.cls-4{fill:#40a4c8;}.cls-5{fill:#0d1f23;}.cls-6{clip-path:url(#clip-path-2);}.cls-7{fill:#fff;}</style><clipPath id="clip-path"><path id="SVGID" class="cls-1" d="M-39.3,70.13A18.33,18.33,0,0,0-55.23,52.42a18,18,0,0,0-8.47,1c0-.37,0-.74,0-1.12A36.34,36.34,0,0,0-100,16a36.34,36.34,0,0,0-36.33,36.33c0,.38,0,.75,0,1.12a18,18,0,0,0-8.47-1A18.33,18.33,0,0,0-160.7,70.14a18.16,18.16,0,0,0,18.16,18.47h85.08A18.16,18.16,0,0,0-39.3,70.13Z"/></clipPath><clipPath id="clip-path-2"><path id="SVGID-2" data-name="SVGID" class="cls-1" d="M122.52,52.65a17.94,17.94,0,0,0-6.24,1.13c0-.38,0-.75,0-1.13a36.31,36.31,0,0,0-72.62,0c0,.38,0,.75,0,1.13a17.94,17.94,0,0,0-6.24-1.13,18.16,18.16,0,1,0,0,36.31h85a18.16,18.16,0,1,0,0-36.31Z"/></clipPath></defs><g id="레이어_1" data-name="레이어 1"><g class="cls-2"><path class="cls-3" d="M-128.34,16s67.22,42,25.16,102.64S12,74.88,12,74.88l-27.79-77L-87.09-17.24-120.76,16Z"/></g></g><g id="레이어_5" data-name="레이어 5"><path class="cls-4" d="M49.2,134.81a10,10,0,0,1-20,0c0-5.52,10-21.52,10-21.52S49.2,129.29,49.2,134.81Z"/><path class="cls-5" d="M39.2,147.69a12.89,12.89,0,0,1-12.88-12.88c0-6,8.69-20.26,10.44-23l2.44-3.92,2.44,3.92c1.75,2.78,10.44,17,10.44,23A12.89,12.89,0,0,1,39.2,147.69Zm0-28.79c-3.49,6-7.12,13.31-7.12,15.91a7.12,7.12,0,0,0,14.24,0C46.32,132.21,42.69,125,39.2,118.9Z"/><path class="cls-5" d="M119.56,141.52a14.12,14.12,0,0,1-10-24.1,2.88,2.88,0,0,1,4.08,4.08,8.35,8.35,0,1,0,11.81,0,2.88,2.88,0,0,1,4.07-4.08,14.12,14.12,0,0,1-10,24.1Z"/><path class="cls-5" d="M79.38,139.88A2.88,2.88,0,0,1,76.5,137V121.11a2.88,2.88,0,0,1,5.76,0V137A2.88,2.88,0,0,1,79.38,139.88Z"/><path class="cls-5" d="M87.32,131.93H71.44a2.88,2.88,0,0,1,0-5.76H87.32a2.88,2.88,0,1,1,0,5.76Z"/><g class="cls-6"><path class="cls-7" d="M122.52,52.65a17.94,17.94,0,0,0-6.24,1.13c0-.38,0-.75,0-1.13a36.31,36.31,0,0,0-72.62,0c0,.38,0,.75,0,1.13a17.94,17.94,0,0,0-6.24-1.13,18.16,18.16,0,1,0,0,36.31h85a18.16,18.16,0,1,0,0-36.31Z"/><path class="cls-3" d="M51.68,16.34s67.18,42,25.14,102.6,115.1-43.71,115.1-43.71L164.14-1.69,92.9-16.84,59.25,16.34Z"/></g><path class="cls-5" d="M122.52,93h-85a22.19,22.19,0,1,1,0-44.37,20.61,20.61,0,0,1,2.36.13,40.34,40.34,0,0,1,80.31,0,20.91,20.91,0,0,1,2.37-.13,22.19,22.19,0,1,1,0,44.37Zm-85-36.31a14.13,14.13,0,0,0,0,28.25h85a14.13,14.13,0,1,0-4.85-27.37,4,4,0,0,1-5.42-3.91v-.29c0-.24,0-.47,0-.71a32.28,32.28,0,0,0-64.55,0c0,.23,0,.45,0,.68v.32a4,4,0,0,1-5.42,3.91A14.12,14.12,0,0,0,37.48,56.68Z"/><path class="cls-7" d="M94.65,42.44a4.06,4.06,0,0,1-2.77-1.1L87.24,37a4,4,0,0,1,5.54-5.87l4.64,4.38a4,4,0,0,1-2.77,7Z"/></g></svg>