<svg xmlns="http://www.w3.org/2000/svg" xmlns:xlink="http://www.w3.org/1999/xlink" viewBox="0 0 160 160"><defs><style>.cls-1{fill:none;}.cls-2{clip-path:url(#clip-path);}.cls-3{fill:#cadada;}.cls-4{fill:#0d1f23;}.cls-5{clip-path:url(#clip-path-2);}.cls-6{fill:#fff;}</style><clipPath id="clip-path"><path id="SVGID" class="cls-1" d="M-57.48,52.65a17.94,17.94,0,0,0-6.24,1.13c0-.38,0-.75,0-1.13A36.31,36.31,0,0,0-100,16.34a36.31,36.31,0,0,0-36.31,36.31c0,.38,0,.75,0,1.13a17.94,17.94,0,0,0-6.24-1.13,18.16,18.16,0,0,0-18.16,18.16A18.16,18.16,0,0,0-142.52,89h85A18.16,18.16,0,0,0-39.32,70.81,18.16,18.16,0,0,0-57.48,52.65Z"/></clipPath><clipPath id="clip-path-2"><path id="SVGID-2" data-name="SVGID" class="cls-1" d="M122.52,55.74a18.17,18.17,0,0,0-6.24,1.12c0-.37,0-.75,0-1.12a36.31,36.31,0,0,0-72.62,0c0,.37,0,.75,0,1.12a18.15,18.15,0,1,0-6.24,35.19h85a18.16,18.16,0,1,0,0-36.31Z"/></clipPath></defs><g id="레이어_5" data-name="레이어 5"><g class="cls-2"><path class="cls-3" d="M-128.32,16.34s67.18,42,25.14,102.6S11.92,75.23,11.92,75.23L-15.86-1.69-87.1-16.84l-33.65,33.18Z"/></g><path class="cls-4" d="M121.81,144.6a14.11,14.11,0,0,1-10-24.09,2.88,2.88,0,1,1,4.07,4.07,8.36,8.36,0,1,0,11.81,0,2.88,2.88,0,0,1,4.08-4.07,14.11,14.11,0,0,1-10,24.09Z"/><path class="cls-4" d="M81.63,144.61a14.12,14.12,0,0,1-10-24.1,2.88,2.88,0,1,1,4.08,4.07,8.36,8.36,0,1,0,11.81,0,2.88,2.88,0,1,1,4.08-4.07,14.12,14.12,0,0,1-10,24.1Z"/><path class="cls-4" d="M41.44,144.6a14.11,14.11,0,0,1-10-24.09,2.88,2.88,0,0,1,4.08,4.07,8.35,8.35,0,1,0,11.81,0,2.88,2.88,0,0,1,4.08-4.07,14.11,14.11,0,0,1-10,24.09Z"/><g class="cls-5"><path class="cls-6" d="M122.52,55.74a18.17,18.17,0,0,0-6.24,1.12c0-.37,0-.75,0-1.12a36.31,36.31,0,0,0-72.62,0c0,.37,0,.75,0,1.12a18.15,18.15,0,1,0-6.24,35.19h85a18.16,18.16,0,1,0,0-36.31Z"/><path class="cls-3" d="M51.68,19.43s67.18,42,25.14,102.59,115.1-43.7,115.1-43.7L164.14,1.4,92.9-13.76,59.25,19.43Z"/></g><path class="cls-4" d="M122.52,96.08h-85a22.19,22.19,0,0,1,0-44.38,23.17,23.17,0,0,1,2.36.13,40.34,40.34,0,0,1,80.31,0,23.52,23.52,0,0,1,2.37-.13,22.19,22.19,0,1,1,0,44.38Zm-85-36.31a14.12,14.12,0,1,0,0,28.24h85a14.12,14.12,0,1,0-4.85-27.36,4,4,0,0,1-5.42-3.91v-.3c0-.23,0-.47,0-.7a32.28,32.28,0,1,0-64.55,0c0,.22,0,.45,0,.67v.33a4,4,0,0,1-5.42,3.91A14.12,14.12,0,0,0,37.48,59.77Z"/><path class="cls-6" d="M94.65,45.52a4,4,0,0,1-2.77-1.1l-4.64-4.37a4,4,0,0,1,5.54-5.87l4.64,4.37a4,4,0,0,1-2.77,7Z"/></g></svg>